<svg xmlns="http://www.w3.org/2000/svg" width="26.114" height="28.567" viewBox="0 0 26.114 28.567"><path d="M13.62.562C6.4.562.563,6.951.563,14.846S6.4,29.13,13.62,29.13a12.3,12.3,0,0,0,7.129-2.317,1.466,1.466,0,0,0,.292-2.037l-.536-.716a1.188,1.188,0,0,0-1.652-.3,9.117,9.117,0,0,1-5.234,1.679c-5.342,0-9.688-4.754-9.688-10.6s4.346-10.6,9.688-10.6c5.272,0,9.688,3.319,9.688,9.215,0,2.234-1.111,4.593-3.063,4.82-.913-.026-.89-.741-.71-1.729L20.769,9.58a1.352,1.352,0,0,0-1.241-1.645H17.16a.738.738,0,0,0-.707.691v.005a3.851,3.851,0,0,0-3.157-1.254c-3.927,0-7.257,3.584-7.257,8.723,0,3.761,1.937,6.1,5.054,6.1a5.191,5.191,0,0,0,3.948-2.208c.5,1.964,2.138,1.964,3.723,1.964,5.734,0,7.913-4.125,7.913-8.49C26.677,5.611,20.887.562,13.62.562ZM12.478,18.1c-1.171,0-1.9-.9-1.9-2.348,0-2.591,1.621-4.189,3.087-4.189,1.174,0,1.874.878,1.874,2.348C15.54,16.5,13.757,18.1,12.478,18.1Z" transform="translate(-0.563 -0.563)" fill="#17a2b8"/></svg>