<svg xmlns="http://www.w3.org/2000/svg" width="33" height="21" viewBox="0 0 33 21"><path d="M24.75,19.5A17.98,17.98,0,0,0,18,21a17.694,17.694,0,0,0-6.75-1.5c-3.255,0-9.75,1.62-9.75,4.875V28.5h33V24.375C34.5,21.12,28.005,19.5,24.75,19.5Zm-6,6.75h-15V24.375c0-.81,3.84-2.625,7.5-2.625s7.5,1.815,7.5,2.625Zm13.5,0H21V24.375a2.729,2.729,0,0,0-.78-1.83,14.471,14.471,0,0,1,4.53-.8c3.66,0,7.5,1.815,7.5,2.625ZM11.25,18A5.25,5.25,0,1,0,6,12.75,5.256,5.256,0,0,0,11.25,18Zm0-8.25a3,3,0,1,1-3,3A3.009,3.009,0,0,1,11.25,9.75ZM24.75,18a5.25,5.25,0,1,0-5.25-5.25A5.256,5.256,0,0,0,24.75,18Zm0-8.25a3,3,0,1,1-3,3A3.009,3.009,0,0,1,24.75,9.75Z" transform="translate(-1.5 -7.5)" fill="#17a2b8"/></svg>