<svg xmlns="http://www.w3.org/2000/svg" width="22.246" height="22.242" viewBox="0 0 22.246 22.242"><path d="M22.157,14.09a1.807,1.807,0,0,0-2.284-1.137l-2.254.75-1.5-4.469,2.254-.75a1.8,1.8,0,1,0-1.142-3.416l-2.254.75-.78-2.334a1.806,1.806,0,0,0-3.426,1.142l.78,2.334L6.907,8.508l-.78-2.334A1.806,1.806,0,0,0,2.7,7.317l.78,2.334L1.232,10.4A1.8,1.8,0,0,0,.09,12.674,1.862,1.862,0,0,0,1.758,13.9c.338.05.6-.079,2.865-.834l1.5,4.469-2.254.75A1.811,1.811,0,0,0,2.731,20.56,1.862,1.862,0,0,0,4.4,21.781c.338.05.6-.079,2.865-.834l.78,2.334a1.845,1.845,0,0,0,2.284,1.137,1.8,1.8,0,0,0,1.142-2.279l-.78-2.334,4.648-1.554.78,2.334A1.845,1.845,0,0,0,18.4,21.722a1.8,1.8,0,0,0,1.142-2.279l-.78-2.334,2.254-.75a1.789,1.789,0,0,0,1.137-2.269ZM9.539,16.433l-1.5-4.479L12.678,10.4l1.5,4.479Z" transform="translate(-0.001 -2.255)" fill="#17a2b8"/></svg>